<svg width="180" height="180" viewBox="0 0 180 180" fill="none" xmlns="http://www.w3.org/2000/svg">
  <!-- Background -->
  <rect width="180" height="180" fill="#0052FF"/>
  
  <!-- Poker chip -->
  <circle cx="90" cy="90" r="64" fill="white"/>
  <circle cx="90" cy="90" r="56" fill="#0052FF"/>
  
  <!-- Chip segments -->
  <g stroke="white" stroke-width="4" stroke-linecap="round">
    <line x1="90" y1="26" x2="90" y2="34"/>
    <line x1="112" y1="30" x2="108" y2="38"/>
    <line x1="131" y1="41" x2="125" y2="47"/>
    <line x1="146" y1="60" x2="138" y2="64"/>
    <line x1="154" y1="82" x2="146" y2="84"/>
    <line x1="154" y1="98" x2="146" y2="96"/>
    <line x1="146" y1="120" x2="138" y2="116"/>
    <line x1="131" y1="139" x2="125" y2="133"/>
    <line x1="112" y1="150" x2="108" y2="142"/>
    <line x1="90" y1="154" x2="90" y2="146"/>
    <line x1="68" y1="150" x2="72" y2="142"/>
    <line x1="49" y1="139" x2="55" y2="133"/>
    <line x1="34" y1="120" x2="42" y2="116"/>
    <line x1="26" y1="98" x2="34" y2="96"/>
    <line x1="26" y1="82" x2="34" y2="84"/>
    <line x1="34" y1="60" x2="42" y2="64"/>
    <line x1="49" y1="41" x2="55" y2="47"/>
    <line x1="68" y1="30" x2="72" y2="38"/>
  </g>
  
  <!-- Cards -->
  <rect x="66" y="75" width="20" height="30" rx="2" fill="white"/>
  <text x="76" y="92" font-family="Arial" font-size="11" font-weight="bold" fill="black" text-anchor="middle">A</text>
  
  <rect x="94" y="75" width="20" height="30" rx="2" fill="white"/>
  <text x="104" y="92" font-family="Arial" font-size="11" font-weight="bold" fill="#FF0000" text-anchor="middle">K</text>
  
  <!-- AI -->
  <circle cx="90" cy="112" r="9" fill="white"/>
  <text x="90" y="116" font-family="Arial" font-size="7" font-weight="bold" fill="#0052FF" text-anchor="middle">AI</text>
</svg>
