<svg width="32" height="32" viewBox="0 0 32 32" fill="none" xmlns="http://www.w3.org/2000/svg">
  <!-- Background -->
  <rect width="32" height="32" rx="6" fill="#0052FF"/>
  
  <!-- Poker chip -->
  <circle cx="16" cy="16" r="11" fill="white"/>
  <circle cx="16" cy="16" r="9" fill="#0052FF"/>
  
  <!-- Chip segments -->
  <line x1="16" y1="5" x2="16" y2="7" stroke="white" stroke-width="1.5" stroke-linecap="round"/>
  <line x1="21" y1="7" x2="20" y2="9" stroke="white" stroke-width="1.5" stroke-linecap="round"/>
  <line x1="25" y1="11" x2="23" y2="12" stroke="white" stroke-width="1.5" stroke-linecap="round"/>
  <line x1="27" y1="16" x2="25" y2="16" stroke="white" stroke-width="1.5" stroke-linecap="round"/>
  <line x1="25" y1="21" x2="23" y2="20" stroke="white" stroke-width="1.5" stroke-linecap="round"/>
  <line x1="21" y1="25" x2="20" y2="23" stroke="white" stroke-width="1.5" stroke-linecap="round"/>
  <line x1="16" y1="27" x2="16" y2="25" stroke="white" stroke-width="1.5" stroke-linecap="round"/>
  <line x1="11" y1="25" x2="12" y2="23" stroke="white" stroke-width="1.5" stroke-linecap="round"/>
  <line x1="7" y1="21" x2="9" y2="20" stroke="white" stroke-width="1.5" stroke-linecap="round"/>
  <line x1="5" y1="16" x2="7" y2="16" stroke="white" stroke-width="1.5" stroke-linecap="round"/>
  <line x1="7" y1="11" x2="9" y2="12" stroke="white" stroke-width="1.5" stroke-linecap="round"/>
  <line x1="11" y1="7" x2="12" y2="9" stroke="white" stroke-width="1.5" stroke-linecap="round"/>
  
  <!-- Center text -->
  <text x="16" y="19" font-family="Arial" font-size="8" font-weight="bold" fill="white" text-anchor="middle">AI</text>
</svg>
