<svg width="512" height="512" viewBox="0 0 512 512" fill="none" xmlns="http://www.w3.org/2000/svg">
  <!-- Background -->
  <rect width="512" height="512" rx="80" fill="#0052FF"/>
  
  <!-- Poker chip outer ring -->
  <circle cx="256" cy="256" r="180" fill="white"/>
  <circle cx="256" cy="256" r="160" fill="#0052FF"/>
  
  <!-- Chip segments (decorative) -->
  <g stroke="white" stroke-width="10" stroke-linecap="round">
    <line x1="256" y1="76" x2="256" y2="96"/>
    <line x1="316" y1="86" x2="310" y2="104"/>
    <line x1="370" y1="116" x2="358" y2="130"/>
    <line x1="410" y1="166" x2="394" y2="174"/>
    <line x1="436" y1="226" x2="416" y2="230"/>
    <line x1="436" y1="286" x2="416" y2="282"/>
    <line x1="410" y1="346" x2="394" y2="338"/>
    <line x1="370" y1="396" x2="358" y2="382"/>
    <line x1="316" y1="426" x2="310" y2="408"/>
    <line x1="256" y1="436" x2="256" y2="416"/>
    <line x1="196" y1="426" x2="202" y2="408"/>
    <line x1="142" y1="396" x2="154" y2="382"/>
    <line x1="102" y1="346" x2="118" y2="338"/>
    <line x1="76" y1="286" x2="96" y2="282"/>
    <line x1="76" y1="226" x2="96" y2="230"/>
    <line x1="102" y1="166" x2="118" y2="174"/>
    <line x1="142" y1="116" x2="154" y2="130"/>
    <line x1="196" y1="86" x2="202" y2="104"/>
  </g>
  
  <!-- Playing cards -->
  <rect x="190" y="210" width="60" height="85" rx="6" fill="white" stroke="#333" stroke-width="2"/>
  <text x="220" y="245" font-family="Arial" font-size="32" font-weight="bold" fill="black" text-anchor="middle">A</text>
  <path d="M 220 255 L 213 270 L 227 270 Z" fill="black"/>
  
  <rect x="262" y="210" width="60" height="85" rx="6" fill="white" stroke="#333" stroke-width="2"/>
  <text x="292" y="245" font-family="Arial" font-size="32" font-weight="bold" fill="#FF0000" text-anchor="middle">K</text>
  <path d="M 292 255 C 292 262 285 266 285 266 C 285 266 292 270 292 277 C 292 277 299 270 299 266 C 299 266 292 262 292 255" fill="#FF0000"/>
  
  <!-- AI chip indicator -->
  <circle cx="256" cy="330" r="28" fill="white" stroke="#333" stroke-width="2"/>
  <text x="256" y="342" font-family="Arial" font-size="22" font-weight="bold" fill="#0052FF" text-anchor="middle">AI</text>
</svg>
